PathFileType	4	(X/Y/Z)	C:/Users/beibeiliu/ov580/test_trc/User3\sequence.8_training_dense_right.trc
DataRate	CameraRate	NumFrames	NumMarkers	Units	OrigDataRate	OrigDataStartFrame	OrigNumFrames
120	120	8	19	mm	120	55	81
Frame#	Time	ThumbCMC			ThumbMCP			ThumbIP			ThumbTip			IndexMCP			IndexPIP			IndexTip			MiddleMCP			MiddlePIP			MiddleTip			RingMCP			RingPIP			RingTip			PinkyMCP			PinkyPIP			PinkyTip			BackHand1			BackHand2			BackHand3	
		X0	Y0	Z0	X1	Y1	Z1	X2	Y2	Z2	X3	Y3	Z3	X4	Y4	Z4	X5	Y5	Z5	X6	Y6	Z6	X7	Y7	Z7	X8	Y8	Z8	X9	Y9	Z9	X10	Y10	Z10	X11	Y11	Z11	X12	Y12	Z12	X13	Y13	Z13	X14	Y14	Z14	X15	Y15	Z15	X16	Y16	Z16	X17	Y17	Z17	X18	Y18	Z18	
54	0.45	189.991	32.8484	3.01796	194.165	50.0556	-18.5336	204.211	66.0425	-42.8942	210.272	79.5177	-55.0779	185.782	10.5411	-74.1697	191.708	14.4013	-99.5159	192.99	14.9895	-120.321	167.9	-8.47851	-75.8199	166.316	-10.2785	-104.798	165.413	-9.74388	-131.046	146.087	-15.8292	-66.6084	138.772	-22.4701	-85.733	134.93	-25.7694	-110.423	122.8	-20.1768	-47.1701	111.22	-24.7582	-62.5398	99.9459	-35.8905	-80.3519	159.582	-18.5009	-17.6553	161.129	-22.3731	14.1222	188.292	-2.5995	-8.84756	
55	0.458333	209.875	15.1409	5.51492	222.416	28.0513	-18.4529	238.445	40.8238	-35.1434	250.762	50.6505	-53.6123	211.274	-12.852	-65.8772	217.943	-15.1322	-90.3663	224.369	-17.2228	-111.283	186.213	-28.9729	-69.292	188.185	-32.8723	-96.1723	188.012	-38.2746	-128.109	159.864	-31.0967	-58.9431	160.732	-37.2074	-85.5333	151.422	-46.3928	-106.969	138.272	-26.3393	-43.1543	123.41	-32.694	-59.2694	117.211	-42.2874	-75.6554	169.375	-32.0623	-12.5117	168.117	-29.0928	19.6118	202.538	-17.7814	-1.27672	
56	0.466667	225.081	15.2173	11.7794	238.704	29.4134	-11.0448	254.715	39.0814	-30.4838	267.917	50.1762	-44.5421	238.95	-19.6954	-55.5599	252.308	-19.5305	-74.9862	263.107	-22.9756	-100.212	219.154	-37.7015	-58.9481	224.022	-43.9148	-84.0084	231.742	-48.5398	-115.512	195.79	-40.6806	-53.4644	194.664	-52.6461	-77.1825	193.649	-60.4498	-100.812	169.596	-39.795	-43.0308	157.439	-49.2647	-58.4772	149.396	-60.109	-76.8508	191.427	-37.0251	-4.26042	187.906	-33.9678	24.0231	219.014	-20.1655	7.5605	
57	0.475	226.305	32.2096	15.5856	238.25	48.0053	-9.93478	251.727	64.1147	-30.3069	256.113	73.2381	-42.4858	261.697	4.37745	-45.3914	276.288	4.68094	-68.1202	287.258	5.98127	-92.4723	250.032	-23.666	-52.0529	264.417	-26.6172	-77.9644	272.417	-29.5923	-105.842	229.192	-36.0948	-47.4434	239.315	-43.9817	-69.0874	248.457	-49.1649	-95.0769	203.644	-46.7808	-40.5978	204.836	-54.026	-57.8499	204.391	-69.6885	-79.3778	221.231	-28.2421	0.369355	210.818	-28.97	24.5422	235.379	-4.48517	13.4043	
58	0.483333	212.549	46.9658	10.9242	212.295	65.2779	-10.8225	217.572	85.3028	-29.8986	220.641	96.2498	-48.9821	261.286	38.8749	-43.7567	275.879	51.84	-64.9577	286.383	57.0737	-85.2233	266.486	11.2987	-45.9014	284.131	11.952	-73.0512	297.19	19.2685	-101.748	257.423	-6.67911	-42.9653	271.573	-14.9034	-65.3463	283.138	-15.2645	-86.861	237.804	-32.085	-36.2695	245.774	-41.6914	-53.9901	254.976	-53.6809	-71.9203	236.883	-10.3335	2.67129	225.726	-12.9123	30.5566	237.216	21.3459	16.995	
59	0.491667	191.635	47.9752	7.06803	183.351	67.8743	-15.4425	183.672	80.5725	-41.0646	177.518	93.3157	-55.3066	240.019	65.0411	-45.9622	249.177	76.3445	-66.6329	260.586	86.0588	-87.0314	260.882	40.5089	-50.3513	274.499	48.4993	-72.8419	285.395	56.5091	-97.7355	261.116	15.3551	-43.8907	276.856	16.5639	-63.464	289.386	17.4232	-85.3275	250.968	-12.7227	-34.08	263.731	-19.7999	-50.4209	276.472	-23.4551	-67.9892	241.754	10.6619	-2.10517	230.104	2.44327	29.0123	226.136	36.3418	15.2952	
60	0.5	166.367	41.1072	4.4536	158.09	50.4064	-21.9245	146.734	64.5006	-45.1327	136.09	73.9221	-62.4194	212.201	71.2228	-54.2447	211.77	86.603	-75.8656	217.216	100.706	-93.5465	234.671	56.2257	-51.9183	242.624	68.7878	-75.9557	258.117	79.4608	-105.935	249.587	33.4697	-49.4588	260.687	38.5173	-66.9744	275.058	44.482	-89.3562	249.259	2.67554	-35.8285	263.543	5.53327	-55.0993	279.895	-0.321344	-65.7385	232.531	23.0126	-2.67306	224.004	14.0284	25.51	207.403	44.3326	7.88602	
61	0.508333	148.313	26.5618	-3.08574	129.894	29.6836	-24.4331	117.021	37.2404	-50.8714	110.373	39.3054	-68.7538	178.419	60.1696	-58.5248	178.678	73.4118	-84.0916	174.612	85.8029	-100.904	209.95	52.5593	-59.2664	211.554	68.9622	-85.3266	217.619	81.4771	-111.633	224.078	39.0034	-53.9468	234.702	46.7252	-70.6058	248.485	54.6469	-92.6397	236.914	14.7321	-41.7481	250.241	13.5623	-53.6761	269.619	20.3241	-71.2458	214.564	26.5723	-8.88981	209.67	18.9113	20.535	181.056	41.3399	2.60653	
